<svg xmlns="http://www.w3.org/2000/svg" viewBox="0 0 338 29" width="338" height="29">
  <path fill="#CECECE" d="M13.58 27.58V5.65h7.44V.5H0v5.15h7.44v21.93h6.14zm17.78 0v-11.3h9.35v11.3h6.15V.5H40.7v10.42h-9.35V.5h-6.1v27.08h6.1zm39.26 0v-5.15H59.36V16.2h9.22v-5.1h-9.22V5.64H70.2V.5H53.25v27.08h17.37z"/>
  <path fill="#FF5D18" d="M86.07 27.58c1.47 0 2.84-.16 4.11-.48 1.27-.31 2.39-.8 3.34-1.45a6.97 6.97 0 002.25-2.47c.54-1 .8-2.19.8-3.57 0-.92-.12-1.73-.37-2.43a5.87 5.87 0 00-2.57-3.16 6.82 6.82 0 00-1.91-.77v-.17a4 4 0 001.47-.9A6.45 6.45 0 0095 9.05c.17-.61.26-1.22.26-1.83 0-1.3-.26-2.38-.77-3.24a5.86 5.86 0 00-2.12-2.08c-.9-.53-1.95-.9-3.16-1.1C88 .61 86.7.5 85.28.5h-9.26v27.08h10.05zm-1.08-16.24h-2.87v-6.1h2.9c1.45 0 2.52.22 3.2.66.7.44 1.05 1.19 1.05 2.24 0 .97-.34 1.75-1.02 2.33-.68.58-1.77.87-3.26.87zm.58 11.5h-3.45v-6.97h3.45c1.69 0 2.95.25 3.78.77.83.5 1.25 1.36 1.25 2.55 0 2.44-1.68 3.66-5.03 3.66zm32.94 4.74v-5.15h-11.26V16.2h9.22v-5.1h-9.22V5.64h10.84V.5h-16.94v27.08h17.36zm22.76 0v-5.15h-11.25V16.2h9.22v-5.1h-9.22V5.64h10.84V.5H123.9v27.08h17.36zm11.5 0v-9.76h3.37l5.2 9.76h6.85l-6.15-10.84a7.98 7.98 0 003.51-2.89 8.6 8.6 0 001.31-4.92c0-1.6-.28-2.95-.83-4.03a6.94 6.94 0 00-2.24-2.6 9.22 9.22 0 00-3.3-1.39 18.84 18.84 0 00-4.06-.41h-9.76v27.08h6.1zm3.17-14.62h-3.16v-7.6h3.16c1.6 0 2.83.26 3.67.79.85.52 1.27 1.45 1.27 2.78 0 1.33-.42 2.33-1.27 3.01-.84.68-2.07 1.02-3.67 1.02z"/>
  <path fill="#242424" d="M178.24 27.58v-10.5h9.39v-5.16h-9.39V5.65h10.97V.5h-17.07v27.08h6.1zm18.44 0l1.67-6.44h8.26l1.66 6.44h6.48L206.28.5h-7.35l-8.48 27.08h6.23zm8.69-11.21h-5.78l.67-2.5c.38-1.35.75-2.79 1.1-4.3l1.02-4.42h.16c.36 1.41.72 2.88 1.08 4.4a96.8 96.8 0 001.12 4.32l.63 2.5zM229 28.08a11 11 0 008.77-3.99l-3.24-3.82a9.18 9.18 0 01-2.3 1.8c-.88.5-1.87.73-2.98.73-2 0-3.59-.76-4.78-2.3-1.19-1.54-1.78-3.7-1.78-6.5 0-1.36.17-2.58.52-3.66.34-1.08.81-2 1.4-2.74.6-.75 1.31-1.32 2.13-1.72a5.8 5.8 0 015.19 0c.76.4 1.49.92 2.18 1.56l3.24-3.9a12.95 12.95 0 00-3.45-2.48A10.18 10.18 0 00229.2 0c-1.7 0-3.34.32-4.9.96-1.54.63-2.9 1.56-4.06 2.78a13.59 13.59 0 00-2.79 4.46 16.28 16.28 0 00-1.03 6c0 2.28.33 4.28 1 6a12.4 12.4 0 002.71 4.35 11.42 11.42 0 004.01 2.64c1.52.6 3.14.89 4.86.89zm24.3-.5V5.65h7.44V.5h-21.02v5.15h7.43v21.93h6.15zm22.68.5c1.83 0 3.5-.33 5-.98 1.52-.65 2.81-1.58 3.9-2.8a12.88 12.88 0 002.5-4.44c.6-1.75.9-3.73.9-5.94 0-2.2-.3-4.15-.9-5.88-.6-1.73-1.43-3.2-2.5-4.38a10.67 10.67 0 00-3.9-2.73 13 13 0 00-5-.93 13 13 0 00-5 .93c-1.51.63-2.8 1.53-3.89 2.7A12.24 12.24 0 00264.58 8c-.6 1.73-.9 3.7-.9 5.92 0 2.21.3 4.2.9 5.94.6 1.74 1.43 3.22 2.51 4.44a10.88 10.88 0 003.89 2.8c1.5.65 3.17.98 5 .98zm0-5.28c-1.85 0-3.32-.8-4.4-2.38-1.08-1.6-1.62-3.76-1.62-6.5 0-2.72.54-4.84 1.62-6.36a5.12 5.12 0 014.4-2.28c1.86 0 3.32.76 4.4 2.28 1.08 1.52 1.62 3.64 1.62 6.36 0 2.74-.54 4.9-1.62 6.5a5.06 5.06 0 01-4.4 2.38zm23.51 4.78v-9.76h3.37l5.19 9.76h6.85l-6.14-10.84a7.98 7.98 0 003.5-2.89 8.6 8.6 0 001.31-4.92c0-1.6-.27-2.95-.83-4.03a6.94 6.94 0 00-2.24-2.6 9.22 9.22 0 00-3.3-1.39 18.84 18.84 0 00-4.05-.41h-9.76v27.08h6.1zm3.16-14.62h-3.16v-7.6h3.16c1.6 0 2.83.26 3.68.79.84.52 1.26 1.45 1.26 2.78 0 1.33-.42 2.33-1.26 3.01-.85.68-2.07 1.02-3.68 1.02zm26.96 14.62v-9.64L337.79.5h-6.4l-2.45 6.23c-.38 1.02-.77 2.01-1.14 2.97l-.38.97-.76 2.04h-.17l-1.1-3.01-.35-.97-.75-2L321.9.5h-6.57l8.18 17.44v9.64h6.1z"/>
</svg>
